<?xml version="1.0" encoding="UTF-8"?>
<svg width="120px" height="34px" viewBox="0 0 120 34" version="1.1" xmlns="http://www.w3.org/2000/svg" xmlns:xlink="http://www.w3.org/1999/xlink">
    <!-- Generator: Sketch 50.2 (55047) - http://www.bohemiancoding.com/sketch -->
    <title>spond-logo-colors</title>
    <desc>Created with Sketch.</desc>
    <defs>
        <linearGradient x1="84.8187701%" y1="71.1817434%" x2="14.384599%" y2="28.333138%" id="linearGradient-1">
            <stop stop-color="#E4577C" offset="0%"></stop>
            <stop stop-color="#E6745C" offset="100%"></stop>
        </linearGradient>
        <linearGradient x1="84.8187701%" y1="71.1817434%" x2="14.384599%" y2="28.333138%" id="linearGradient-2">
            <stop stop-color="#FE0368" offset="0%"></stop>
            <stop stop-color="#FF472C" offset="100%"></stop>
        </linearGradient>
    </defs>
    <g id="spond-logo-colors" stroke="none" stroke-width="1" fill="none" fill-rule="evenodd">
        <g id="Logo-type" transform="translate(0.000000, 1.000000)">
            <path d="M41.2125692,21.8867374 C41.5790514,23.8579267 43.4256917,25.1433248 45.8222134,25.1433248 C48.2890909,25.1433248 49.9806324,23.9147956 49.9806324,22.1010772 C49.9806324,20.7013005 49.0642688,19.8442617 46.6962055,19.0588296 L44.6520949,18.3872956 C41.7341502,17.4161985 40.0566798,15.4307519 40.0566798,12.8742131 C40.0566798,9.24629563 43.3411067,6.57537816 47.7673518,6.57537816 C52.0105138,6.57537816 55.0835573,9.14633447 55.2808696,12.8170238 L51.7989723,12.8170238 C51.4465613,10.8889267 49.8255336,9.64614029 47.5983399,9.64614029 C45.4133597,9.64614029 43.7921739,10.8317374 43.7921739,12.4743684 C43.7921739,13.7310917 44.6803953,14.6453199 46.7101186,15.330951 L48.7120158,16.0021646 C52.1232411,17.1446694 53.7020553,18.8872617 53.7020553,21.5868539 C53.7020553,25.5431694 50.3893281,28.2140869 45.5403162,28.2140869 C41.0856126,28.2140869 38.0267984,25.8145383 37.6603162,21.8867374 L41.2125692,21.8867374 Z" id="Fill-1" fill="#122235"></path>
            <path d="M66.8747826,18.4017291 C66.8747826,16.0878845 65.6343083,14.8023262 63.703083,14.8023262 C60.9824506,14.8023262 58.8257708,17.6875835 58.8257708,21.2153796 C58.8257708,23.5436417 60.15083,24.9003262 62.1101976,24.9003262 C64.8028458,24.9003262 66.8747826,22.1153505 66.8747826,18.4017291 Z M52.7924111,32.8989816 L57.1623715,12.0743796 L60.5456126,12.0743796 L60.0943874,14.2310738 L60.3340711,14.2310738 C61.4194466,12.7598505 63.1252174,11.817268 65.1550988,11.817268 C68.2422134,11.817268 70.5117787,14.2310738 70.5117787,17.8162194 C70.5117787,23.6006709 67.1146245,27.9569913 62.7022925,27.9569913 C60.4749407,27.9569913 58.7552569,26.6858505 58.247747,24.8575544 L57.9941502,24.8575544 L56.2883794,32.8989816 L52.7924111,32.8989816 Z" id="Fill-3" fill="#122235"></path>
            <path d="M78.1904032,25.0432194 C80.6854229,25.0432194 82.7293755,22.2295689 82.7293755,18.8159913 C82.7293755,16.2592922 81.5312727,14.7308796 79.5437628,14.7308796 C76.8370435,14.7308796 74.9059763,17.4162146 74.9059763,21.1296757 C74.9059763,23.5151272 76.188664,25.0432194 78.1904032,25.0432194 M71.2406798,21.3153408 C71.2406798,15.788001 74.8212332,11.7600786 79.7549881,11.7600786 C83.7443953,11.7600786 86.408585,14.4309961 86.408585,18.4587583 C86.408585,23.9434864 82.7998893,28.0141806 77.9225771,28.0141806 C73.93317,28.0141806 71.2406798,25.3145883 71.2406798,21.3153408" id="Fill-6" fill="#122235"></path>
            <path d="M89.1041265,12.0743796 L92.4873676,12.0743796 L91.9798577,14.5024427 L92.2195415,14.5024427 C93.2062609,12.9741903 94.7004901,11.817268 96.9417549,11.817268 C99.8317154,11.817268 101.593613,13.8882583 101.593613,16.4307 C101.593613,16.9876951 101.523257,17.6161369 101.382229,18.2588359 L99.4087905,27.6998796 L95.898751,27.6998796 L97.7594625,18.8587631 C97.8721897,18.3730544 97.9284743,17.9446951 97.9284743,17.5446903 C97.9284743,15.9592485 96.9417549,14.8452583 95.1657866,14.8452583 C93.1640474,14.8452583 91.740332,16.3449961 91.3031779,18.3730544 L89.3297391,27.6998796 L85.8198577,27.6998796 L89.1041265,12.0743796 Z" id="Fill-8" fill="#122235"></path>
            <path d="M113.806909,18.5445583 C113.806909,16.2307136 112.481692,14.8596117 110.522482,14.8596117 C107.829834,14.8596117 105.715368,17.5305291 105.715368,21.186801 C105.715368,23.5006456 107.082798,24.9718689 108.97181,24.9718689 C111.692285,24.9718689 113.806909,22.0866117 113.806909,18.5445583 M102.092601,21.7724709 C102.092601,16.0163738 105.546356,11.8172039 109.9443,11.8172039 C112.213866,11.8172039 113.905407,13.0883447 114.412917,14.8166796 L114.666514,14.8166796 L116.499241,6.03259223 L120.023352,6.03259223 L115.484221,27.6998155 L112.087067,27.6998155 L112.538134,25.5431214 L112.298451,25.5431214 C111.213075,27.0143447 109.549676,27.9570874 107.519636,27.9570874 C104.46098,27.9570874 102.092601,25.6003107 102.092601,21.7724709" id="Fill-10" fill="#122235"></path>
            <g id="Logo" transform="translate(0.000000, -0.160194)">
                <path d="M0,16.4223058 C0,25.4915388 7.35307282,32.8442913 16.4221456,32.8442913 C25.4913786,32.8442913 32.8444515,25.4912184 32.8444515,16.4218252 C32.8444515,7.35243204 25.4913786,0 16.4221456,0 C7.35307282,0 0,7.35275243 0,16.4223058 M14.5023786,3.12202427 C13.9179903,4.34030097 13.8332476,5.73687379 14.2699369,7.0181068 C15.1048689,9.46747573 17.4672524,10.8115049 19.8381262,11.4157573 C23.4418544,12.3344709 26.2909078,13.3143786 27.9016602,14.8395874 C29.3203398,16.1824951 29.865,18.1455146 29.0001117,21.157966 C28.7681505,21.9666262 28.3349854,22.6971117 27.9029417,23.4062913 C27.7324951,22.4411214 27.3219175,21.4756311 26.6378883,20.541699 C22.1646262,14.4352573 12.3536942,15.6551359 8.60899515,10.5414175 C7.51070388,9.04216019 7.5872767,7.48170874 8.73634951,6.04156311 C10.074932,4.36465049 12.4156893,3.41918447 14.5023786,3.12202427 C14.5023786,3.12202427 14.5023786,3.12202427 14.5023786,3.12202427 M20.5729369,8.52297087 C18.4816019,7.99000485 17.424801,7.0346068 17.0935194,6.06158738 C16.5847427,4.56633495 17.7890825,2.95029612 19.419699,3.32130583 C23.9099417,4.34366505 27.577267,7.62812621 29.1021553,11.966665 C27.0302039,10.4185485 24.1005728,9.42230097 20.5729369,8.52297087 M18.5743544,25.8260243 C17.7395825,23.3766553 15.3773592,22.0327864 13.006165,21.428534 C9.40259709,20.5096602 6.55354369,19.5297524 4.94263107,18.0045437 C3.52427184,16.6614757 2.97945146,14.6986165 3.84433981,11.686165 C4.07630097,10.877665 4.50946602,10.1470194 4.9416699,9.43783981 C5.11195631,10.4028495 5.52269417,11.3686602 6.2067233,12.302432 C10.679665,18.4087136 20.4909175,17.1889951 24.2352961,22.3027136 C25.3335874,23.8019709 25.2571748,25.3622621 24.1081019,26.802568 C22.7693592,28.4794806 20.4289223,29.4249466 18.342233,29.7219466 C18.9266214,28.5036699 19.0113641,27.1072573 18.5743544,25.8260243 M13.4247524,29.5228252 C8.93434951,28.500466 5.26734466,25.2160049 3.74245631,20.877466 C5.81424757,22.4255825 8.74387864,23.4216699 12.2716748,24.3211602 C14.3630097,24.8541262 15.4196505,25.8095243 15.7510922,26.7827039 C16.209568,28.1304175 15.2759563,29.5766505 13.8931602,29.5766505 C13.7419369,29.5766505 13.5854272,29.5593495 13.4247524,29.5228252" id="Faded" fill="url(#linearGradient-1)"></path>
                <path d="M0,16.5235485 C0,25.5927816 7.35307282,32.945534 16.4221456,32.945534 C25.4913786,32.945534 32.8444515,25.5924612 32.8444515,16.523068 C32.8444515,7.45367476 25.4913786,0.101242718 16.4221456,0.101242718 C7.35307282,0.101242718 0,7.45399515 0,16.5235485 M14.5023786,3.22326699 C13.9179903,4.44154369 13.8332476,5.8381165 14.2699369,7.11934951 C15.1048689,9.56871845 17.4672524,10.9127476 19.8381262,11.517 C23.4418544,12.4357136 26.2909078,13.4156214 27.9016602,14.9408301 C29.3203398,16.2837379 29.865,18.2467573 29.0001117,21.2592087 C28.7681505,22.0678689 28.3349854,22.7983544 27.9029417,23.507534 C27.7324951,22.5423641 27.3219175,21.5768738 26.6378883,20.6429417 C22.1646262,14.5365 12.3536942,15.7563786 8.60899515,10.6426602 C7.51070388,9.14340291 7.5872767,7.58295146 8.73634951,6.14280583 C10.074932,4.4658932 12.4156893,3.52042718 14.5023786,3.22326699 C14.5023786,3.22326699 14.5023786,3.22326699 14.5023786,3.22326699 M20.5729369,8.62421359 C18.4816019,8.09124757 17.424801,7.13584951 17.0935194,6.1628301 C16.5847427,4.66757767 17.7890825,3.05153883 19.419699,3.42254854 C23.9099417,4.44490777 27.577267,7.72936893 29.1021553,12.0679078 C27.0302039,10.5197913 24.1005728,9.52354369 20.5729369,8.62421359 M18.5743544,25.927267 C17.7395825,23.4778981 15.3773592,22.1340291 13.006165,21.5297767 C9.40259709,20.6109029 6.55354369,19.6309951 4.94263107,18.1057864 C3.52427184,16.7627184 2.97945146,14.7998592 3.84433981,11.7874078 C4.07630097,10.9789078 4.50946602,10.2482621 4.9416699,9.53908252 C5.11195631,10.5040922 5.52269417,11.4699029 6.2067233,12.4036748 C10.679665,18.5099563 20.4909175,17.2902379 24.2352961,22.4039563 C25.3335874,23.9032136 25.2571748,25.4635049 24.1081019,26.9038107 C22.7693592,28.5807233 20.4289223,29.5261893 18.342233,29.8231893 C18.9266214,28.6049126 19.0113641,27.2085 18.5743544,25.927267 M13.4247524,29.624068 C8.93434951,28.6017087 5.26734466,25.3172476 3.74245631,20.9787087 C5.81424757,22.5268252 8.74387864,23.5229126 12.2716748,24.4224029 C14.3630097,24.9553689 15.4196505,25.910767 15.7510922,26.8839466 C16.209568,28.2316602 15.2759563,29.6778932 13.8931602,29.6778932 C13.7419369,29.6778932 13.5854272,29.6605922 13.4247524,29.624068" id="Original" fill="url(#linearGradient-2)"></path>
            </g>
        </g>
    </g>
</svg>